<?xml version="1.0" encoding="UTF-8"?>
<!DOCTYPE svg PUBLIC "-//W3C//DTD SVG 1.1//EN" "http://www.w3.org/Graphics/SVG/1.1/DTD/svg11.dtd">
<svg width="195mm" height="116mm" viewBox="0 0 19500 11600" version="1.1" xmlns="http://www.w3.org/2000/svg" stroke-width="28.222" stroke-linejoin="round" xml:space="preserve">
 <path fill="rgb(255,255,255)" stroke="none" d="M 9762,0 L 0,11605 0,11605 19524,1 19524,1 9762,11605 Z"/>
 <path fill="none" stroke="rgb(179,179,179)" stroke-linejoin="round" d="M 9536,0 L 2208,9745 2208,9745 16863,1579 16863,1579 9536,9745 Z"/>
 <path fill="none" stroke="rgb(179,179,179)" stroke-linejoin="round" d="M 16863,0 L 2208,9744"/>
 <path fill="none" stroke="rgb(179,179,179)" stroke-linejoin="round" d="M 16863,0 L 2208,8836"/>
 <path fill="none" stroke="rgb(179,179,179)" stroke-linejoin="round" d="M 16863,0 L 2208,7929"/>
 <path fill="none" stroke="rgb(179,179,179)" stroke-linejoin="round" d="M 16863,0 L 2208,7021"/>
 <path fill="none" stroke="rgb(179,179,179)" stroke-linejoin="round" d="M 16863,0 L 2208,6114"/>
 <path fill="none" stroke="rgb(179,179,179)" stroke-linejoin="round" d="M 16863,0 L 2208,5207"/>
 <path fill="none" stroke="rgb(179,179,179)" stroke-linejoin="round" d="M 16863,0 L 2208,4300"/>
 <path fill="none" stroke="rgb(179,179,179)" stroke-linejoin="round" d="M 16863,0 L 2208,3392"/>
 <path fill="none" stroke="rgb(179,179,179)" stroke-linejoin="round" d="M 16863,0 L 2208,2485"/>
 <path fill="none" stroke="rgb(179,179,179)" stroke-linejoin="round" d="M 16863,0 L 2208,1578"/>
 <path fill="none" stroke="rgb(179,179,179)" stroke-linejoin="round" d="M 2208,0 L 2208,9894"/>
 <path fill="none" stroke="rgb(179,179,179)" stroke-linejoin="round" d="M 2208,0 L 2208,9894"/>
 <path fill="none" stroke="rgb(179,179,179)" stroke-linejoin="round" d="M 2979,0 L 2979,9894"/>
 <path fill="none" stroke="rgb(179,179,179)" stroke-linejoin="round" d="M 2979,0 L 2979,9894"/>
 <path fill="none" stroke="rgb(179,179,179)" stroke-linejoin="round" d="M 3750,0 L 3750,9894"/>
 <path fill="none" stroke="rgb(179,179,179)" stroke-linejoin="round" d="M 3750,0 L 3750,9894"/>
 <path fill="none" stroke="rgb(179,179,179)" stroke-linejoin="round" d="M 4522,0 L 4522,9894"/>
 <path fill="none" stroke="rgb(179,179,179)" stroke-linejoin="round" d="M 4522,0 L 4522,9894"/>
 <path fill="none" stroke="rgb(179,179,179)" stroke-linejoin="round" d="M 5293,0 L 5293,9894"/>
 <path fill="none" stroke="rgb(179,179,179)" stroke-linejoin="round" d="M 5293,0 L 5293,9894"/>
 <path fill="none" stroke="rgb(179,179,179)" stroke-linejoin="round" d="M 6064,0 L 6064,9894"/>
 <path fill="none" stroke="rgb(179,179,179)" stroke-linejoin="round" d="M 6064,0 L 6064,9894"/>
 <path fill="none" stroke="rgb(179,179,179)" stroke-linejoin="round" d="M 6836,0 L 6836,9894"/>
 <path fill="none" stroke="rgb(179,179,179)" stroke-linejoin="round" d="M 6836,0 L 6836,9894"/>
 <path fill="none" stroke="rgb(179,179,179)" stroke-linejoin="round" d="M 7607,0 L 7607,9894"/>
 <path fill="none" stroke="rgb(179,179,179)" stroke-linejoin="round" d="M 7607,0 L 7607,9894"/>
 <path fill="none" stroke="rgb(179,179,179)" stroke-linejoin="round" d="M 8378,0 L 8378,9894"/>
 <path fill="none" stroke="rgb(179,179,179)" stroke-linejoin="round" d="M 8378,0 L 8378,9894"/>
 <path fill="none" stroke="rgb(179,179,179)" stroke-linejoin="round" d="M 9150,0 L 9150,9894"/>
 <path fill="none" stroke="rgb(179,179,179)" stroke-linejoin="round" d="M 9150,0 L 9150,9894"/>
 <path fill="none" stroke="rgb(179,179,179)" stroke-linejoin="round" d="M 9920,0 L 9920,9894"/>
 <path fill="none" stroke="rgb(179,179,179)" stroke-linejoin="round" d="M 9920,0 L 9920,9894"/>
 <path fill="none" stroke="rgb(179,179,179)" stroke-linejoin="round" d="M 10692,0 L 10692,9894"/>
 <path fill="none" stroke="rgb(179,179,179)" stroke-linejoin="round" d="M 10692,0 L 10692,9894"/>
 <path fill="none" stroke="rgb(179,179,179)" stroke-linejoin="round" d="M 11463,0 L 11463,9894"/>
 <path fill="none" stroke="rgb(179,179,179)" stroke-linejoin="round" d="M 11463,0 L 11463,9894"/>
 <path fill="none" stroke="rgb(179,179,179)" stroke-linejoin="round" d="M 12234,0 L 12234,9894"/>
 <path fill="none" stroke="rgb(179,179,179)" stroke-linejoin="round" d="M 12234,0 L 12234,9894"/>
 <path fill="none" stroke="rgb(179,179,179)" stroke-linejoin="round" d="M 13006,0 L 13006,9894"/>
 <path fill="none" stroke="rgb(179,179,179)" stroke-linejoin="round" d="M 13006,0 L 13006,9894"/>
 <path fill="none" stroke="rgb(179,179,179)" stroke-linejoin="round" d="M 13777,0 L 13777,9894"/>
 <path fill="none" stroke="rgb(179,179,179)" stroke-linejoin="round" d="M 13777,0 L 13777,9894"/>
 <path fill="none" stroke="rgb(179,179,179)" stroke-linejoin="round" d="M 14548,0 L 14548,9894"/>
 <path fill="none" stroke="rgb(179,179,179)" stroke-linejoin="round" d="M 14548,0 L 14548,9894"/>
 <path fill="none" stroke="rgb(179,179,179)" stroke-linejoin="round" d="M 15320,0 L 15320,9894"/>
 <path fill="none" stroke="rgb(179,179,179)" stroke-linejoin="round" d="M 15320,0 L 15320,9894"/>
 <path fill="none" stroke="rgb(179,179,179)" stroke-linejoin="round" d="M 16091,0 L 16091,9894"/>
 <path fill="none" stroke="rgb(179,179,179)" stroke-linejoin="round" d="M 16091,0 L 16091,9894"/>
 <path fill="none" stroke="rgb(179,179,179)" stroke-linejoin="round" d="M 16863,0 L 16863,9894"/>
 <path fill="none" stroke="rgb(179,179,179)" stroke-linejoin="round" d="M 16863,0 L 16863,9894"/>
 <path fill="none" stroke="rgb(179,179,179)" stroke-linejoin="round" d="M 2208,0 L 16863,9744"/>
 <path fill="none" stroke="rgb(179,179,179)" stroke-linejoin="round" d="M 2058,0 L 2208,9744"/>
 <path fill="none" stroke="rgb(179,179,179)" stroke-linejoin="round" d="M 2058,0 L 2208,9744"/>
 <path fill="none" stroke="rgb(179,179,179)" stroke-linejoin="round" d="M 2058,0 L 2208,8836"/>
 <path fill="none" stroke="rgb(179,179,179)" stroke-linejoin="round" d="M 2058,0 L 2208,8836"/>
 <path fill="none" stroke="rgb(179,179,179)" stroke-linejoin="round" d="M 2058,0 L 2208,7929"/>
 <path fill="none" stroke="rgb(179,179,179)" stroke-linejoin="round" d="M 2058,0 L 2208,7929"/>
 <path fill="none" stroke="rgb(179,179,179)" stroke-linejoin="round" d="M 2058,0 L 2208,7021"/>
 <path fill="none" stroke="rgb(179,179,179)" stroke-linejoin="round" d="M 2058,0 L 2208,7021"/>
 <path fill="none" stroke="rgb(179,179,179)" stroke-linejoin="round" d="M 2058,0 L 2208,6114"/>
 <path fill="none" stroke="rgb(179,179,179)" stroke-linejoin="round" d="M 2058,0 L 2208,6114"/>
 <path fill="none" stroke="rgb(179,179,179)" stroke-linejoin="round" d="M 2058,0 L 2208,5207"/>
 <path fill="none" stroke="rgb(179,179,179)" stroke-linejoin="round" d="M 2058,0 L 2208,5207"/>
 <path fill="none" stroke="rgb(179,179,179)" stroke-linejoin="round" d="M 2058,0 L 2208,4300"/>
 <path fill="none" stroke="rgb(179,179,179)" stroke-linejoin="round" d="M 2058,0 L 2208,4300"/>
 <path fill="none" stroke="rgb(179,179,179)" stroke-linejoin="round" d="M 2058,0 L 2208,3392"/>
 <path fill="none" stroke="rgb(179,179,179)" stroke-linejoin="round" d="M 2058,0 L 2208,3392"/>
 <path fill="none" stroke="rgb(179,179,179)" stroke-linejoin="round" d="M 2058,0 L 2208,2485"/>
 <path fill="none" stroke="rgb(179,179,179)" stroke-linejoin="round" d="M 2058,0 L 2208,2485"/>
 <path fill="none" stroke="rgb(179,179,179)" stroke-linejoin="round" d="M 2058,0 L 2208,1578"/>
 <path fill="none" stroke="rgb(179,179,179)" stroke-linejoin="round" d="M 2058,0 L 2208,1578"/>
 <path fill="none" stroke="rgb(179,179,179)" stroke-linejoin="round" d="M 2208,0 L 2208,9744"/>
 <path fill="none" stroke="rgb(0,69,134)" stroke-width="80" stroke-linejoin="round" d="M 2208,0 L 2246,9674 2285,9675 2323,9677 2362,9679 2400,9681 2439,9682 2477,9684 2516,9686 2555,9687 2593,9689 2632,9691 2670,9692 2709,9694 2747,9695 2786,9697 2825,9698 2863,9700 2902,9701 2940,9702 2979,9703 3017,9704 3056,9705 3095,9706 3133,9707 3172,9708 3210,9709 3249,9710 3287,9710 3326,9711 3365,9711 3403,9712 3442,9713 3480,9713 3519,9713 3557,9714 3596,9714 3635,9715 3673,9715 3712,9715 3750,9716 3789,9716 3827,9716 3866,9716 3905,9717 3943,9717 3982,9717 4020,9718 4059,9718 4097,9718 4136,9719 4174,9719 4213,9719 4252,9719 4290,9720 4329,9720 4367,9720 4406,9721 4444,9721 4483,9721 4522,9722 4560,9722 4599,9722 4637,9723 4676,9723 4714,9723 4753,9723 4792,9724 4830,9724 4869,9724 4907,9725 4946,9725 4984,9725 5023,9726 5062,9726 5100,9726 5139,9727 5177,9727 5216,9727 5254,9727 5293,9728 5332,9728 5370,9728 5409,9728 5447,9729 5486,9729 5524,9729 5563,9729 5602,9729 5640,9730 5679,9730 5717,9730 5756,9730 5794,9730 5833,9731 5872,9731 5910,9731 5949,9731 5987,9731 6026,9731 6064,9731 6103,9732 6141,9732 6180,9732 6219,9732 6257,9732 6296,9732 6334,9733 6373,9733 6411,9733 6450,9733 6489,9733 6527,9733 6566,9733 6604,9734 6643,9734 6681,9734 6720,9734 6759,9734 6797,9734 6836,9734 6874,9735 6913,9735 6951,9735 6990,9735 7029,9735 7067,9735 7106,9735 7144,9735 7183,9735 7221,9736 7260,9736 7299,9736 7337,9736 7376,9736 7414,9736 7453,9736 7491,9736 7530,9736 7569,9736 7607,9736 7646,9736 7684,9736 7723,9736 7761,9736 7800,9736 7838,9736 7877,9736 7916,9736 7954,9736 7993,9736 8031,9736 8070,9736 8108,9736 8147,9736 8186,9736 8224,9736 8263,9736 8301,9736 8340,9736 8378,9737 8417,9737 8456,9737 8494,9737 8533,9737 8571,9737 8610,9737 8648,9737 8687,9737 8726,9737 8764,9737 8803,9737 8841,9737 8880,9737 8918,9737 8957,9738 8996,9738 9034,9738 9073,9738 9111,9738 9150,9738 9188,9738 9227,9738 9266,9738 9304,9738 9343,9738 9381,9738 9420,9738 9458,9738 9497,9738 9536,9738 9574,9738 9613,9738 9651,9737 9690,9737 9728,9737 9766,9737 9804,9737 9843,9737 9882,9737 9920,9737 9959,9737 9997,9737 10036,9737 10074,9737 10113,9737 10152,9737 10190,9738 10229,9738 10267,9738 10306,9738 10344,9738 10383,9738 10422,9738 10460,9738 10499,9738 10537,9738 10576,9738 10614,9738 10653,9738 10692,9738 10730,9738 10769,9738 10807,9738 10846,9738 10884,9739 10923,9739 10962,9739 11000,9739 11039,9739 11077,9739 11116,9739 11154,9739 11193,9739 11232,9739 11270,9739 11309,9739 11347,9739 11386,9739 11424,9739 11463,9739 11501,9739 11540,9739 11579,9739 11617,9739 11656,9739 11694,9739 11733,9739 11771,9739 11810,9739 11849,9739 11887,9739 11926,9739 11964,9739 12003,9739 12041,9739 12080,9739 12119,9739 12157,9739 12196,9739 12234,9739 12273,9739 12311,9739 12350,9739 12389,9739 12427,9739 12466,9739 12504,9739 12543,9739 12581,9739 12620,9739 12659,9739 12697,9739 12736,9739 12774,9739 12813,9739 12851,9739 12890,9739 12929,9739 12967,9739 13006,9739 13044,9739 13083,9739 13121,9739 13160,9739 13199,9739 13237,9739 13276,9739 13314,9739 13353,9739 13391,9739 13430,9739 13468,9739 13507,9739 13546,9739 13584,9739 13623,9739 13661,9739 13700,9739 13738,9739 13777,9739 13816,9739 13854,9739 13893,9739 13931,9739 13970,9739 14008,9739 14047,9739 14086,9739 14124,9739 14163,9739 14201,9739 14240,9739 14278,9739 14317,9739 14356,9739 14394,9739 14433,9739 14471,9739 14510,9739 14548,9739 14587,9739 14626,9739 14664,9739 14703,9739 14741,9739 14780,9739 14818,9739 14857,9739 14896,9739 14934,9739 14973,9739 15011,9738 15050,9738 15088,9738 15127,9738 15165,9738 15204,9738 15243,9738 15281,9738 15320,9738 15358,9738 15397,9738 15435,9738 15474,9738 15513,9738 15551,9738 15590,9738 15628,9738 15667,9738 15705,9738 15744,9738 15783,9738 15821,9738 15860,9738 15898,9738 15937,9738 15975,9738 16014,9739 16053,9739 16091,9739 16130,9739 16168,9739 16207,9739 16245,9739 16284,9739 16323,9739 16361,9739 16400,9739 16438,9739 16477,9739 16515,9739 16554,9739 16593,9739 16631,9739 16670,9739 16708,9739 16747,9739 16785,9739 16824,9739 16863,9739"/>
 <path fill="none" stroke="rgb(255,66,14)" stroke-width="80" stroke-linejoin="round" d="M 2208,0 L 2246,9440 2285,9448 2323,9456 2362,9464 2400,9471 2439,9479 2477,9487 2516,9494 2555,9501 2593,9509 2632,9516 2670,9523 2709,9530 2747,9536 2786,9543 2825,9549 2863,9555 2902,9561 2940,9566 2979,9571 3017,9576 3056,9581 3095,9585 3133,9589 3172,9593 3210,9597 3249,9600 3287,9603 3326,9606 3365,9608 3403,9611 3442,9613 3480,9615 3519,9617 3557,9619 3596,9621 3635,9623 3673,9624 3712,9626 3750,9627 3789,9629 3827,9630 3866,9632 3905,9633 3943,9634 3982,9636 4020,9637 4059,9638 4097,9640 4136,9641 4174,9642 4213,9643 4252,9645 4290,9646 4329,9647 4367,9648 4406,9650 4444,9651 4483,9652 4522,9654 4560,9655 4599,9657 4637,9658 4676,9659 4714,9661 4753,9662 4792,9664 4830,9665 4869,9667 4907,9668 4946,9670 4984,9671 5023,9673 5062,9674 5100,9675 5139,9677 5177,9678 5216,9679 5254,9680 5293,9681 5332,9683 5370,9684 5409,9684 5447,9685 5486,9686 5524,9687 5563,9688 5602,9689 5640,9689 5679,9690 5717,9691 5756,9691 5794,9692 5833,9692 5872,9693 5910,9694 5949,9694 5987,9695 6026,9695 6064,9696 6103,9697 6141,9697 6180,9698 6219,9699 6257,9699 6296,9700 6334,9701 6373,9702 6411,9702 6450,9703 6489,9704 6527,9705 6566,9705 6604,9706 6643,9707 6681,9707 6720,9708 6759,9709 6797,9709 6836,9710 6874,9711 6913,9711 6951,9712 6990,9712 7029,9713 7067,9713 7106,9714 7144,9714 7183,9715 7221,9715 7260,9715 7299,9716 7337,9716 7376,9716 7414,9717 7453,9717 7491,9717 7530,9718 7569,9718 7607,9718 7646,9718 7684,9719 7723,9719 7761,9719 7800,9719 7838,9719 7877,9720 7916,9720 7954,9720 7993,9720 8031,9720 8070,9721 8108,9721 8147,9721 8186,9721 8224,9721 8263,9721 8301,9721 8340,9722 8378,9722 8417,9722 8456,9722 8494,9722 8533,9722 8571,9722 8610,9723 8648,9723 8687,9723 8726,9723 8764,9723 8803,9723 8841,9723 8880,9724 8918,9724 8957,9724 8996,9724 9034,9724 9073,9724 9111,9724 9150,9725 9188,9725 9227,9725 9266,9725 9304,9725 9343,9725 9381,9726 9420,9726 9458,9726 9497,9726 9536,9726 9574,9726 9613,9726 9651,9727 9690,9727 9728,9727 9766,9727 9804,9727 9843,9727 9882,9727 9920,9727 9959,9727 9997,9728 10036,9728 10074,9728 10113,9728 10152,9728 10190,9728 10229,9728 10267,9728 10306,9728 10344,9728 10383,9728 10422,9728 10460,9728 10499,9728 10537,9728 10576,9728 10614,9728 10653,9728 10692,9729 10730,9729 10769,9729 10807,9729 10846,9729 10884,9729 10923,9729 10962,9729 11000,9729 11039,9729 11077,9729 11116,9729 11154,9729 11193,9729 11232,9729 11270,9729 11309,9729 11347,9729 11386,9729 11424,9730 11463,9730 11501,9730 11540,9730 11579,9730 11617,9730 11656,9730 11694,9730 11733,9730 11771,9730 11810,9730 11849,9730 11887,9730 11926,9730 11964,9730 12003,9730 12041,9730 12080,9730 12119,9731 12157,9731 12196,9731 12234,9731 12273,9731 12311,9731 12350,9731 12389,9731 12427,9731 12466,9731 12504,9731 12543,9731 12581,9731 12620,9731 12659,9731 12697,9731 12736,9731 12774,9731 12813,9731 12851,9731 12890,9731 12929,9731 12967,9731 13006,9731 13044,9731 13083,9732 13121,9732 13160,9732 13199,9732 13237,9732 13276,9732 13314,9732 13353,9732 13391,9732 13430,9732 13468,9732 13507,9732 13546,9732 13584,9732 13623,9732 13661,9732 13700,9732 13738,9732 13777,9732 13816,9732 13854,9732 13893,9732 13931,9732 13970,9732 14008,9732 14047,9733 14086,9733 14124,9733 14163,9733 14201,9733 14240,9733 14278,9733 14317,9733 14356,9733 14394,9733 14433,9733 14471,9733 14510,9733 14548,9733 14587,9733 14626,9733 14664,9734 14703,9734 14741,9734 14780,9733 14818,9733 14857,9733 14896,9733 14934,9733 14973,9733 15011,9733 15050,9733 15088,9733 15127,9733 15165,9733 15204,9733 15243,9733 15281,9733 15320,9733 15358,9733 15397,9733 15435,9733 15474,9733 15513,9733 15551,9733 15590,9733 15628,9733 15667,9733 15705,9734 15744,9734 15783,9734 15821,9734 15860,9734 15898,9734 15937,9734 15975,9734 16014,9734 16053,9734 16091,9734 16130,9734 16168,9734 16207,9734 16245,9734 16284,9734 16323,9734 16361,9734 16400,9734 16438,9734 16477,9734 16515,9734 16554,9734 16593,9734 16631,9734 16670,9734 16708,9734 16747,9734 16785,9734 16824,9734 16863,9734"/>
 <path fill="none" stroke="rgb(255,211,32)" stroke-width="80" stroke-linejoin="round" d="M 2208,0 L 2246,8533 2285,8565 2323,8598 2362,8630 2400,8662 2439,8693 2477,8725 2516,8756 2555,8786 2593,8816 2632,8845 2670,8874 2709,8902 2747,8930 2786,8956 2825,8982 2863,9006 2902,9030 2940,9052 2979,9073 3017,9093 3056,9112 3095,9130 3133,9146 3172,9161 3210,9175 3249,9189 3287,9201 3326,9212 3365,9223 3403,9233 3442,9242 3480,9250 3519,9258 3557,9266 3596,9273 3635,9279 3673,9286 3712,9292 3750,9298 3789,9303 3827,9309 3866,9314 3905,9320 3943,9325 3982,9330 4020,9336 4059,9341 4097,9346 4136,9351 4174,9357 4213,9362 4252,9367 4290,9372 4329,9377 4367,9383 4406,9388 4444,9393 4483,9398 4522,9404 4560,9409 4599,9415 4637,9421 4676,9426 4714,9432 4753,9438 4792,9443 4830,9449 4869,9455 4907,9460 4946,9466 4984,9471 5023,9477 5062,9482 5100,9487 5139,9492 5177,9497 5216,9502 5254,9506 5293,9511 5332,9515 5370,9519 5409,9522 5447,9526 5486,9529 5524,9532 5563,9535 5602,9538 5640,9540 5679,9543 5717,9545 5756,9548 5794,9550 5833,9553 5872,9555 5910,9557 5949,9559 5987,9562 6026,9564 6064,9566 6103,9569 6141,9571 6180,9574 6219,9577 6257,9580 6296,9582 6334,9585 6373,9588 6411,9591 6450,9594 6489,9597 6527,9599 6566,9602 6604,9605 6643,9608 6681,9610 6720,9613 6759,9615 6797,9618 6836,9620 6874,9622 6913,9624 6951,9626 6990,9628 7029,9630 7067,9631 7106,9633 7144,9634 7183,9636 7221,9637 7260,9638 7299,9639 7337,9640 7376,9642 7414,9643 7453,9644 7491,9645 7530,9645 7569,9646 7607,9647 7646,9648 7684,9649 7723,9650 7761,9651 7800,9652 7838,9653 7877,9654 7916,9655 7954,9656 7993,9657 8031,9658 8070,9659 8108,9660 8147,9661 8186,9661 8224,9662 8263,9663 8301,9664 8340,9665 8378,9666 8417,9666 8456,9667 8494,9668 8533,9669 8571,9669 8610,9670 8648,9670 8687,9671 8726,9672 8764,9672 8803,9673 8841,9673 8880,9674 8918,9674 8957,9675 8996,9675 9034,9676 9073,9676 9111,9677 9150,9677 9188,9678 9227,9678 9266,9679 9304,9679 9343,9680 9381,9680 9420,9680 9458,9681 9497,9681 9536,9682 9574,9682 9613,9683 9651,9683 9690,9683 9728,9684 9766,9684 9804,9685 9843,9685 9882,9685 9920,9686 9959,9686 9997,9687 10036,9687 10074,9687 10113,9688 10152,9688 10190,9688 10229,9689 10267,9689 10306,9689 10344,9689 10383,9690 10422,9690 10460,9690 10499,9691 10537,9691 10576,9691 10614,9691 10653,9692 10692,9692 10730,9692 10769,9693 10807,9693 10846,9693 10884,9693 10923,9694 10962,9694 11000,9694 11039,9695 11077,9695 11116,9695 11154,9695 11193,9696 11232,9696 11270,9696 11309,9696 11347,9697 11386,9697 11424,9697 11463,9698 11501,9698 11540,9698 11579,9698 11617,9699 11656,9699 11694,9699 11733,9699 11771,9700 11810,9700 11849,9700 11887,9700 11926,9701 11964,9701 12003,9701 12041,9701 12080,9701 12119,9702 12157,9702 12196,9702 12234,9702 12273,9702 12311,9702 12350,9703 12389,9703 12427,9703 12466,9703 12504,9703 12543,9703 12581,9703 12620,9703 12659,9703 12697,9704 12736,9704 12774,9704 12813,9704 12851,9704 12890,9704 12929,9704 12967,9704 13006,9704 13044,9704 13083,9704 13121,9705 13160,9705 13199,9705 13237,9705 13276,9705 13314,9705 13353,9705 13391,9705 13430,9705 13468,9705 13507,9705 13546,9706 13584,9706 13623,9706 13661,9706 13700,9706 13738,9706 13777,9706 13816,9706 13854,9706 13893,9706 13931,9706 13970,9706 14008,9706 14047,9706 14086,9706 14124,9706 14163,9706 14201,9706 14240,9706 14278,9706 14317,9706 14356,9706 14394,9706 14433,9706 14471,9706 14510,9707 14548,9707 14587,9707 14626,9707 14664,9707 14703,9707 14741,9707 14780,9707 14818,9707 14857,9707 14896,9708 14934,9708 14973,9708 15011,9708 15050,9708 15088,9708 15127,9708 15165,9709 15204,9709 15243,9709 15281,9709 15320,9709 15358,9709 15397,9710 15435,9710 15474,9710 15513,9710 15551,9710 15590,9710 15628,9710 15667,9711 15705,9711 15744,9711 15783,9711 15821,9711 15860,9711 15898,9711 15937,9711 15975,9711 16014,9712 16053,9712 16091,9712 16130,9712 16168,9712 16207,9712 16245,9712 16284,9712 16323,9712 16361,9712 16400,9712 16438,9712 16477,9712 16515,9712 16554,9712 16593,9712 16631,9712 16670,9712 16708,9712 16747,9712 16785,9712 16824,9712 16863,9711"/>
 <path fill="none" stroke="rgb(87,157,28)" stroke-width="80" stroke-linejoin="round" d="M 2208,0 L 2246,4855 2285,4985 2323,5114 2362,5243 2400,5372 2439,5499 2477,5625 2516,5749 2555,5871 2593,5991 2632,6109 2670,6225 2709,6338 2747,6448 2786,6554 2825,6657 2863,6756 2902,6852 2940,6942 2979,7028 3017,7110 3056,7186 3095,7258 3133,7324 3172,7387 3210,7445 3249,7500 3287,7550 3326,7597 3365,7641 3403,7682 3442,7720 3480,7756 3519,7789 3557,7821 3596,7850 3635,7878 3673,7904 3712,7929 3750,7954 3789,7978 3827,8001 3866,8023 3905,8046 3943,8068 3982,8090 4020,8111 4059,8133 4097,8154 4136,8175 4174,8196 4213,8217 4252,8238 4290,8259 4329,8280 4367,8301 4406,8322 4444,8344 4483,8365 4522,8387 4560,8410 4599,8433 4637,8456 4676,8479 4714,8502 4753,8526 4792,8549 4830,8573 4869,8596 4907,8619 4946,8642 4984,8665 5023,8687 5062,8709 5100,8730 5139,8751 5177,8771 5216,8790 5254,8809 5293,8826 5332,8843 5370,8859 5409,8874 5447,8887 5486,8901 5524,8913 5563,8925 5602,8936 5640,8946 5679,8956 5717,8966 5756,8976 5794,8985 5833,8994 5872,9003 5910,9012 5949,9020 5987,9029 6026,9039 6064,9048 6103,9058 6141,9068 6180,9078 6219,9089 6257,9099 6296,9110 6334,9122 6373,9133 6411,9144 6450,9156 6489,9167 6527,9179 6566,9190 6604,9201 6643,9212 6681,9223 6720,9233 6759,9243 6797,9253 6836,9262 6874,9271 6913,9280 6951,9288 6990,9295 7029,9302 7067,9309 7106,9315 7144,9321 7183,9327 7221,9332 7260,9338 7299,9342 7337,9347 7376,9351 7414,9356 7453,9360 7491,9364 7530,9368 7569,9371 7607,9375 7646,9379 7684,9382 7723,9386 7761,9389 7800,9393 7838,9396 7877,9400 7916,9403 7954,9407 7993,9410 8031,9413 8070,9417 8108,9420 8147,9423 8186,9426 8224,9429 8263,9433 8301,9436 8340,9438 8378,9441 8417,9444 8456,9447 8494,9450 8533,9452 8571,9455 8610,9457 8648,9460 8687,9462 8726,9464 8764,9467 8803,9469 8841,9471 8880,9473 8918,9475 8957,9478 8996,9480 9034,9482 9073,9483 9111,9485 9150,9487 9188,9489 9227,9491 9266,9493 9304,9495 9343,9496 9381,9498 9420,9500 9458,9501 9497,9503 9536,9505 9574,9506 9613,9508 9651,9509 9690,9511 9728,9512 9766,9514 9804,9515 9843,9517 9882,9518 9920,9520 9959,9521 9997,9522 10036,9524 10074,9525 10113,9526 10152,9528 10190,9529 10229,9530 10267,9532 10306,9533 10344,9534 10383,9536 10422,9537 10460,9538 10499,9539 10537,9541 10576,9542 10614,9543 10653,9544 10692,9545 10730,9546 10769,9548 10807,9549 10846,9550 10884,9551 10923,9552 10962,9553 11000,9554 11039,9555 11077,9556 11116,9557 11154,9558 11193,9559 11232,9560 11270,9561 11309,9562 11347,9563 11386,9564 11424,9565 11463,9566 11501,9566 11540,9567 11579,9568 11617,9569 11656,9570 11694,9570 11733,9571 11771,9572 11810,9573 11849,9573 11887,9574 11926,9575 11964,9576 12003,9576 12041,9577 12080,9578 12119,9578 12157,9579 12196,9580 12234,9580 12273,9581 12311,9582 12350,9582 12389,9583 12427,9583 12466,9584 12504,9585 12543,9585 12581,9586 12620,9586 12659,9587 12697,9588 12736,9588 12774,9589 12813,9589 12851,9590 12890,9591 12929,9591 12967,9592 13006,9593 13044,9593 13083,9594 13121,9595 13160,9595 13199,9596 13237,9597 13276,9597 13314,9598 13353,9599 13391,9599 13430,9600 13468,9601 13507,9601 13546,9602 13584,9603 13623,9603 13661,9604 13700,9604 13738,9605 13777,9606 13816,9606 13854,9607 13893,9607 13931,9608 13970,9608 14008,9609 14047,9609 14086,9609 14124,9610 14163,9610 14201,9611 14240,9611 14278,9611 14317,9612 14356,9612 14394,9613 14433,9613 14471,9613 14510,9614 14548,9614 14587,9614 14626,9615 14664,9615 14703,9616 14741,9616 14780,9616 14818,9617 14857,9617 14896,9618 14934,9618 14973,9618 15011,9619 15050,9619 15088,9619 15127,9620 15165,9620 15204,9621 15243,9621 15281,9621 15320,9622 15358,9622 15397,9622 15435,9623 15474,9623 15513,9623 15551,9623 15590,9624 15628,9624 15667,9624 15705,9624 15744,9625 15783,9625 15821,9625 15860,9625 15898,9626 15937,9626 15975,9626 16014,9626 16053,9627 16091,9627 16130,9627 16168,9628 16207,9628 16245,9628 16284,9629 16323,9629 16361,9629 16400,9630 16438,9630 16477,9630 16515,9631 16554,9631 16593,9632 16631,9632 16670,9632 16708,9633 16747,9633 16785,9634 16824,9634 16863,9634"/>
 <path fill="none" stroke="rgb(126,0,33)" stroke-width="80" stroke-linejoin="round" d="M 2979,0 L 3017,3803 3056,3913 3095,4023 3133,4133 3172,4241 3210,4349 3249,4457 3287,4562 3326,4667 3365,4770 3403,4871 3442,4970 3480,5067 3519,5161 3557,5253 3596,5342 3635,5428 3673,5511 3712,5590 3750,5666 3789,5738 3827,5805 3866,5870 3905,5931 3943,5989 3982,6044 4020,6096 4059,6146 4097,6194 4136,6240 4174,6285 4213,6329 4252,6371 4290,6413 4329,6455 4367,6497 4406,6539 4444,6581 4483,6624 4522,6669 4560,6714 4599,6761 4637,6810 4676,6859 4714,6910 4753,6962 4792,7014 4830,7067 4869,7119 4907,7172 4946,7225 4984,7277 5023,7328 5062,7379 5100,7428 5139,7477 5177,7524 5216,7569 5254,7613 5293,7654 5332,7693 5370,7730 5409,7765 5447,7797 5486,7827 5524,7856 5563,7883 5602,7909 5640,7933 5679,7956 5717,7978 5756,8000 5794,8021 5833,8041 5872,8061 5910,8081 5949,8101 5987,8121 6026,8142 6064,8163 6103,8185 6141,8208 6180,8231 6219,8255 6257,8280 6296,8305 6334,8331 6373,8357 6411,8383 6450,8409 6489,8435 6527,8461 6566,8487 6604,8513 6643,8538 6681,8562 6720,8586 6759,8609 6797,8631 6836,8653 6874,8673 6913,8692 6951,8711 6990,8728 7029,8744 7067,8759 7106,8773 7144,8787 7183,8800 7221,8812 7260,8823 7299,8834 7337,8845 7376,8854 7414,8864 7453,8873 7491,8882 7530,8891 7569,8899 7607,8907 7646,8915 7684,8923 7723,8932 7761,8940 7800,8948 7838,8956 7877,8964 7916,8971 7954,8979 7993,8987 8031,8995 8070,9002 8108,9009 8147,9017 8186,9024 8224,9031 8263,9038 8301,9045 8340,9051 8378,9058 8417,9064 8456,9070 8494,9076 8533,9082 8571,9088 8610,9093 8648,9099 8687,9104 8726,9109 8764,9114 8803,9119 8841,9124 8880,9129 8918,9133 8957,9138 8996,9142 9034,9146 9073,9151 9111,9155 9150,9159 9188,9163 9227,9167 9266,9172 9304,9176 9343,9180 9381,9183 9420,9187 9458,9191 9497,9195 9536,9199 9574,9202 9613,9206 9651,9210 9690,9213 9728,9217 9766,9220 9804,9224 9843,9227 9882,9230 9920,9234 9959,9237 9997,9240 10036,9243 10074,9246 10113,9249 10152,9252 10190,9255 10229,9258 10267,9261 10306,9264 10344,9267 10383,9269 10422,9272 10460,9275 10499,9277 10537,9280 10576,9282 10614,9285 10653,9287 10692,9290 10730,9292 10769,9294 10807,9296 10846,9299 10884,9301 10923,9303 10962,9305 11000,9307 11039,9310 11077,9312 11116,9314 11154,9316 11193,9318 11232,9320 11270,9322 11309,9325 11347,9327 11386,9329 11424,9331 11463,9334 11501,9336 11540,9339 11579,9341 11617,9343 11656,9346 11694,9348 11733,9351 11771,9353 11810,9355 11849,9358 11887,9360 11926,9362 11964,9364 12003,9366 12041,9367 12080,9368 12119,9370 12157,9371 12196,9372 12234,9372 12273,9372 12311,9372 12350,9372 12389,9372 12427,9371 12466,9371 12504,9370 12543,9369 12581,9368 12620,9367 12659,9366 12697,9365 12736,9365 12774,9364 12813,9364 12851,9364 12890,9364 12929,9364 12967,9365 13006,9366 13044,9367 13083,9369 13121,9371 13160,9373 13199,9376 13237,9379 13276,9382 13314,9386 13353,9389 13391,9393 13430,9396 13468,9400 13507,9403 13546,9407 13584,9410 13623,9413 13661,9416 13700,9418 13738,9421 13777,9423 13816,9424 13854,9425 13893,9426 13931,9427 13970,9427 14008,9427 14047,9426 14086,9425 14124,9424 14163,9423 14201,9422 14240,9421 14278,9419 14317,9418 14356,9416 14394,9415 14433,9414 14471,9412 14510,9411 14548,9410 14587,9409 14626,9409 14664,9408 14703,9408 14741,9408 14780,9408 14818,9409 14857,9409 14896,9410 14934,9411 14973,9412 15011,9413 15050,9415 15088,9416 15127,9418 15165,9420 15204,9422 15243,9424 15281,9426 15320,9429 15358,9431 15397,9434 15435,9436 15474,9439 15513,9442 15551,9444 15590,9447 15628,9450 15667,9453 15705,9455 15744,9458 15783,9461 15821,9463 15860,9465 15898,9468 15937,9470 15975,9472 16014,9474 16053,9475 16091,9477 16130,9478 16168,9479 16207,9479 16245,9480 16284,9480 16323,9480 16361,9480 16400,9480 16438,9480 16477,9479 16515,9478 16554,9478 16593,9477 16631,9476 16670,9475 16708,9473 16747,9472 16785,9471 16824,9470 16863,9468"/>
 <path fill="none" stroke="rgb(131,202,255)" stroke-width="80" stroke-linejoin="round" d="M 3750,0 L 3789,2551 3827,2636 3866,2721 3905,2807 3943,2892 3982,2978 4020,3064 4059,3150 4097,3236 4136,3323 4174,3410 4213,3498 4252,3586 4290,3675 4329,3764 4367,3854 4406,3944 4444,4036 4483,4128 4522,4221 4560,4314 4599,4409 4637,4504 4676,4600 4714,4696 4753,4792 4792,4887 4830,4982 4869,5077 4907,5170 4946,5262 4984,5352 5023,5441 5062,5528 5100,5613 5139,5695 5177,5774 5216,5850 5254,5924 5293,5994 5332,6060 5370,6123 5409,6182 5447,6238 5486,6291 5524,6341 5563,6388 5602,6433 5640,6476 5679,6518 5717,6558 5756,6597 5794,6635 5833,6672 5872,6709 5910,6745 5949,6782 5987,6820 6026,6858 6064,6897 6103,6937 6141,6978 6180,7021 6219,7065 6257,7110 6296,7156 6334,7203 6373,7249 6411,7296 6450,7344 6489,7391 6527,7437 6566,7484 6604,7529 6643,7574 6681,7618 6720,7661 6759,7702 6797,7742 6836,7780 6874,7816 6913,7851 6951,7883 6990,7913 7029,7942 7067,7969 7106,7995 7144,8019 7183,8042 7221,8063 7260,8084 7299,8103 7337,8121 7376,8139 7414,8156 7453,8172 7491,8188 7530,8203 7569,8218 7607,8232 7646,8247 7684,8261 7723,8275 7761,8290 7800,8304 7838,8318 7877,8332 7916,8346 7954,8359 7993,8373 8031,8386 8070,8400 8108,8413 8147,8426 8186,8438 8224,8451 8263,8463 8301,8475 8340,8487 8378,8498 8417,8509 8456,8520 8494,8531 8533,8541 8571,8551 8610,8561 8648,8571 8687,8580 8726,8589 8764,8598 8803,8607 8841,8615 8880,8624 8918,8632 8957,8640 8996,8648 9034,8655 9073,8663 9111,8671 9150,8678 9188,8685 9227,8693 9266,8700 9304,8707 9343,8714 9381,8721 9420,8728 9458,8735 9497,8742 9536,8748 9574,8755 9613,8761 9651,8768 9690,8774 9728,8780 9766,8786 9804,8792 9843,8798 9882,8804 9920,8810 9959,8816 9997,8821 10036,8827 10074,8832 10113,8837 10152,8843 10190,8848 10229,8853 10267,8858 10306,8863 10344,8867 10383,8872 10422,8877 10460,8882 10499,8886 10537,8891 10576,8895 10614,8900 10653,8904 10692,8908 10730,8913 10769,8917 10807,8921 10846,8925 10884,8929 10923,8934 10962,8938 11000,8942 11039,8946 11077,8950 11116,8953 11154,8957 11193,8961 11232,8965 11270,8968 11309,8972 11347,8975 11386,8979 11424,8982 11463,8986 11501,8989 11540,8992 11579,8995 11617,8998 11656,9001 11694,9004 11733,9007 11771,9010 11810,9013 11849,9016 11887,9019 11926,9022 11964,9025 12003,9028 12041,9031 12080,9034 12119,9037 12157,9040 12196,9043 12234,9047 12273,9050 12311,9053 12350,9057 12389,9060 12427,9064 12466,9067 12504,9071 12543,9074 12581,9078 12620,9081 12659,9084 12697,9087 12736,9090 12774,9092 12813,9095 12851,9097 12890,9098 12929,9100 12967,9101 13006,9102 13044,9102 13083,9102 13121,9102 13160,9101 13199,9100 13237,9099 13276,9098 13314,9097 13353,9095 13391,9094 13430,9092 13468,9091 13507,9090 13546,9089 13584,9088 13623,9088 13661,9088 13700,9088 13738,9089 13777,9090 13816,9092 13854,9094 13893,9097 13931,9100 13970,9104 14008,9108 14047,9113 14086,9118 14124,9123 14163,9128 14201,9133 14240,9139 14278,9144 14317,9150 14356,9155 14394,9160 14433,9165 14471,9170 14510,9175 14548,9179 14587,9183 14626,9187 14664,9190 14703,9193 14741,9195 14780,9197 14818,9199 14857,9201 14896,9202 14934,9204 14973,9205 15011,9206 15050,9207 15088,9207 15127,9208 15165,9209 15204,9210 15243,9211 15281,9212 15320,9213 15358,9214 15397,9215 15435,9217 15474,9218 15513,9220 15551,9222 15590,9224 15628,9225 15667,9227 15705,9229 15744,9231 15783,9233 15821,9235 15860,9237 15898,9238 15937,9240 15975,9241 16014,9243 16053,9244 16091,9245 16130,9245 16168,9246 16207,9246 16245,9246 16284,9245 16323,9245 16361,9244 16400,9244 16438,9243 16477,9242 16515,9240 16554,9239 16593,9238 16631,9236 16670,9234 16708,9233 16747,9231 16785,9229 16824,9227 16863,9225"/>
 <path fill="none" stroke="rgb(49,64,4)" stroke-width="80" stroke-linejoin="round" d="M 6064,0 L 6103,3165 6141,3281 6180,3397 6219,3513 6257,3628 6296,3742 6334,3855 6373,3966 6411,4076 6450,4184 6489,4289 6527,4393 6566,4493 6604,4591 6643,4686 6681,4777 6720,4865 6759,4949 6797,5028 6836,5104 6874,5175 6913,5241 6951,5303 6990,5361 7029,5415 7067,5465 7106,5512 7144,5556 7183,5598 7221,5637 7260,5674 7299,5710 7337,5744 7376,5777 7414,5808 7453,5840 7491,5872 7530,5903 7569,5936 7607,5969 7646,6003 7684,6038 7723,6074 7761,6112 7800,6151 7838,6190 7877,6230 7916,6270 7954,6311 7993,6352 8031,6392 8070,6433 8108,6474 8147,6513 8186,6553 8224,6591 8263,6629 8301,6666 8340,6701 8378,6735 8417,6767 8456,6798 8494,6827 8533,6855 8571,6882 8610,6907 8648,6930 8687,6953 8726,6975 8764,6995 8803,7015 8841,7034 8880,7052 8918,7069 8957,7086 8996,7103 9034,7119 9073,7135 9111,7150 9150,7166 9188,7181 9227,7197 9266,7212 9304,7228 9343,7244 9381,7259 9420,7275 9458,7290 9497,7305 9536,7321 9574,7336 9613,7351 9651,7366 9690,7381 9728,7396 9766,7410 9804,7424 9843,7438 9882,7452 9920,7466 9959,7479 9997,7492 10036,7505 10074,7517 10113,7530 10152,7541 10190,7553 10229,7565 10267,7576 10306,7587 10344,7598 10383,7609 10422,7619 10460,7629 10499,7639 10537,7649 10576,7659 10614,7669 10653,7678 10692,7687 10730,7697 10769,7706 10807,7715 10846,7724 10884,7732 10923,7741 10962,7750 11000,7758 11039,7767 11077,7775 11116,7784 11154,7792 11193,7800 11232,7809 11270,7817 11309,7825 11347,7834 11386,7842 11424,7850 11463,7859 11501,7867 11540,7876 11579,7884 11617,7893 11656,7901 11694,7909 11733,7917 11771,7926 11810,7934 11849,7941 11887,7949 11926,7956 11964,7963 12003,7970 12041,7976 12080,7982 12119,7988 12157,7993 12196,7998 12234,8002 12273,8006 12311,8010 12350,8012 12389,8015 12427,8017 12466,8019 12504,8020 12543,8021 12581,8022 12620,8023 12659,8024 12697,8025 12736,8025 12774,8026 12813,8027 12851,8028 12890,8029 12929,8031 12967,8033 13006,8035 13044,8037 13083,8040 13121,8044 13160,8047 13199,8052 13237,8056 13276,8061 13314,8066 13353,8071 13391,8076 13430,8082 13468,8087 13507,8093 13546,8099 13584,8105 13623,8111 13661,8117 13700,8123 13738,8128 13777,8134 13816,8139 13854,8145 13893,8150 13931,8155 13970,8159 14008,8164 14047,8169 14086,8173 14124,8177 14163,8181 14201,8185 14240,8189 14278,8193 14317,8196 14356,8200 14394,8203 14433,8206 14471,8209 14510,8213 14548,8216 14587,8219 14626,8222 14664,8225 14703,8227 14741,8230 14780,8233 14818,8236 14857,8239 14896,8242 14934,8246 14973,8249 15011,8253 15050,8256 15088,8260 15127,8265 15165,8269 15204,8274 15243,8279 15281,8284 15320,8290 15358,8296 15397,8302 15435,8309 15474,8316 15513,8323 15551,8330 15590,8338 15628,8346 15667,8354 15705,8362 15744,8370 15783,8377 15821,8385 15860,8393 15898,8401 15937,8408 15975,8415 16014,8422 16053,8429 16091,8435 16130,8441 16168,8446 16207,8451 16245,8456 16284,8460 16323,8464 16361,8468 16400,8471 16438,8474 16477,8477 16515,8480 16554,8482 16593,8484 16631,8486 16670,8488 16708,8489 16747,8491 16785,8492 16824,8494 16863,8495"/>
 <path fill="none" stroke="rgb(174,207,0)" stroke-width="80" stroke-linejoin="round" d="M 7607,0 L 7646,3072 7684,3129 7723,3185 7761,3242 7800,3298 7838,3354 7877,3410 7916,3466 7954,3521 7993,3576 8031,3630 8070,3684 8108,3737 8147,3790 8186,3841 8224,3893 8263,3943 8301,3993 8340,4041 8378,4089 8417,4136 8456,4182 8494,4226 8533,4270 8571,4313 8610,4354 8648,4395 8687,4435 8726,4474 8764,4513 8803,4550 8841,4587 8880,4623 8918,4658 8957,4692 8996,4726 9034,4759 9073,4792 9111,4823 9150,4855 9188,4885 9227,4915 9266,4945 9304,4974 9343,5003 9381,5031 9420,5058 9458,5085 9497,5112 9536,5138 9574,5164 9613,5189 9651,5213 9690,5237 9728,5261 9766,5284 9804,5307 9843,5330 9882,5352 9920,5373 9959,5394 9997,5415 10036,5435 10074,5455 10113,5475 10152,5494 10190,5514 10229,5533 10267,5551 10306,5570 10344,5589 10383,5607 10422,5626 10460,5644 10499,5663 10537,5681 10576,5700 10614,5719 10653,5738 10692,5757 10730,5776 10769,5796 10807,5815 10846,5835 10884,5855 10923,5875 10962,5894 11000,5914 11039,5932 11077,5951 11116,5969 11154,5986 11193,6002 11232,6017 11270,6031 11309,6045 11347,6057 11386,6067 11424,6077 11463,6084 11501,6090 11540,6095 11579,6098 11617,6100 11656,6100 11694,6100 11733,6099 11771,6097 11810,6096 11849,6094 11887,6092 11926,6090 11964,6089 12003,6089 12041,6090 12080,6091 12119,6094 12157,6099 12196,6105 12234,6113 12273,6124 12311,6136 12350,6151 12389,6167 12427,6186 12466,6205 12504,6227 12543,6249 12581,6272 12620,6296 12659,6320 12697,6345 12736,6370 12774,6395 12813,6420 12851,6444 12890,6468 12929,6491 12967,6512 13006,6533 13044,6552 13083,6570 13121,6586 13160,6601 13199,6614 13237,6626 13276,6637 13314,6647 13353,6656 13391,6664 13430,6672 13468,6679 13507,6685 13546,6691 13584,6696 13623,6701 13661,6706 13700,6711 13738,6716 13777,6721 13816,6727 13854,6732 13893,6738 13931,6744 13970,6750 14008,6757 14047,6764 14086,6771 14124,6778 14163,6785 14201,6792 14240,6800 14278,6807 14317,6815 14356,6822 14394,6830 14433,6837 14471,6845 14510,6852 14548,6859 14587,6867 14626,6874 14664,6880 14703,6887 14741,6894 14780,6900 14818,6907 14857,6913 14896,6920 14934,6926 14973,6932 15011,6939 15050,6945 15088,6951 15127,6958 15165,6964 15204,6970 15243,6977 15281,6983 15320,6990 15358,6996 15397,7003 15435,7010 15474,7017 15513,7023 15551,7030 15590,7037 15628,7044 15667,7051 15705,7057 15744,7064 15783,7070 15821,7077 15860,7083 15898,7089 15937,7094 15975,7099 16014,7104 16053,7109 16091,7114 16130,7118 16168,7121 16207,7125 16245,7128 16284,7130 16323,7133 16361,7135 16400,7137 16438,7138 16477,7140 16515,7141 16554,7142 16593,7142 16631,7143 16670,7143 16708,7144 16747,7144 16785,7144 16824,7144 16863,7145"/>
 <text class="TextShape"><tspan class="TextParagraph" font-family="Liberation Sans, sans-serif" font-size="353px" font-weight="400"><tspan class="TextPosition" x="2115" y="10312"><tspan fill="rgb(0,0,0)" stroke="none">1</tspan></tspan></tspan></text>
 <text class="TextShape"><tspan class="TextParagraph" font-family="Liberation Sans, sans-serif" font-size="353px" font-weight="400"><tspan class="TextPosition" x="2886" y="10312"><tspan fill="rgb(0,0,0)" stroke="none">2</tspan></tspan></tspan></text>
 <text class="TextShape"><tspan class="TextParagraph" font-family="Liberation Sans, sans-serif" font-size="353px" font-weight="400"><tspan class="TextPosition" x="3657" y="10312"><tspan fill="rgb(0,0,0)" stroke="none">3</tspan></tspan></tspan></text>
 <text class="TextShape"><tspan class="TextParagraph" font-family="Liberation Sans, sans-serif" font-size="353px" font-weight="400"><tspan class="TextPosition" x="4429" y="10312"><tspan fill="rgb(0,0,0)" stroke="none">4</tspan></tspan></tspan></text>
 <text class="TextShape"><tspan class="TextParagraph" font-family="Liberation Sans, sans-serif" font-size="353px" font-weight="400"><tspan class="TextPosition" x="5200" y="10312"><tspan fill="rgb(0,0,0)" stroke="none">6</tspan></tspan></tspan></text>
 <text class="TextShape"><tspan class="TextParagraph" font-family="Liberation Sans, sans-serif" font-size="353px" font-weight="400"><tspan class="TextPosition" x="5971" y="10312"><tspan fill="rgb(0,0,0)" stroke="none">8</tspan></tspan></tspan></text>
 <text class="TextShape"><tspan class="TextParagraph" font-family="Liberation Sans, sans-serif" font-size="353px" font-weight="400"><tspan class="TextPosition" x="6651" y="10312"><tspan fill="rgb(0,0,0)" stroke="none">12</tspan></tspan></tspan></text>
 <text class="TextShape"><tspan class="TextParagraph" font-family="Liberation Sans, sans-serif" font-size="353px" font-weight="400"><tspan class="TextPosition" x="7422" y="10312"><tspan fill="rgb(0,0,0)" stroke="none">16</tspan></tspan></tspan></text>
 <text class="TextShape"><tspan class="TextParagraph" font-family="Liberation Sans, sans-serif" font-size="353px" font-weight="400"><tspan class="TextPosition" x="8193" y="10312"><tspan fill="rgb(0,0,0)" stroke="none">20</tspan></tspan></tspan></text>
 <text class="TextShape"><tspan class="TextParagraph" font-family="Liberation Sans, sans-serif" font-size="353px" font-weight="400"><tspan class="TextPosition" x="8965" y="10312"><tspan fill="rgb(0,0,0)" stroke="none">24</tspan></tspan></tspan></text>
 <text class="TextShape"><tspan class="TextParagraph" font-family="Liberation Sans, sans-serif" font-size="353px" font-weight="400"><tspan class="TextPosition" x="9736" y="10312"><tspan fill="rgb(0,0,0)" stroke="none">28</tspan></tspan></tspan></text>
 <text class="TextShape"><tspan class="TextParagraph" font-family="Liberation Sans, sans-serif" font-size="353px" font-weight="400"><tspan class="TextPosition" x="10508" y="10312"><tspan fill="rgb(0,0,0)" stroke="none">32</tspan></tspan></tspan></text>
 <text class="TextShape"><tspan class="TextParagraph" font-family="Liberation Sans, sans-serif" font-size="353px" font-weight="400"><tspan class="TextPosition" x="11279" y="10312"><tspan fill="rgb(0,0,0)" stroke="none">36</tspan></tspan></tspan></text>
 <text class="TextShape"><tspan class="TextParagraph" font-family="Liberation Sans, sans-serif" font-size="353px" font-weight="400"><tspan class="TextPosition" x="12050" y="10312"><tspan fill="rgb(0,0,0)" stroke="none">40</tspan></tspan></tspan></text>
 <text class="TextShape"><tspan class="TextParagraph" font-family="Liberation Sans, sans-serif" font-size="353px" font-weight="400"><tspan class="TextPosition" x="12822" y="10312"><tspan fill="rgb(0,0,0)" stroke="none">44</tspan></tspan></tspan></text>
 <text class="TextShape"><tspan class="TextParagraph" font-family="Liberation Sans, sans-serif" font-size="353px" font-weight="400"><tspan class="TextPosition" x="13593" y="10312"><tspan fill="rgb(0,0,0)" stroke="none">48</tspan></tspan></tspan></text>
 <text class="TextShape"><tspan class="TextParagraph" font-family="Liberation Sans, sans-serif" font-size="353px" font-weight="400"><tspan class="TextPosition" x="14364" y="10312"><tspan fill="rgb(0,0,0)" stroke="none">52</tspan></tspan></tspan></text>
 <text class="TextShape"><tspan class="TextParagraph" font-family="Liberation Sans, sans-serif" font-size="353px" font-weight="400"><tspan class="TextPosition" x="15136" y="10312"><tspan fill="rgb(0,0,0)" stroke="none">56</tspan></tspan></tspan></text>
 <text class="TextShape"><tspan class="TextParagraph" font-family="Liberation Sans, sans-serif" font-size="353px" font-weight="400"><tspan class="TextPosition" x="15907" y="10312"><tspan fill="rgb(0,0,0)" stroke="none">60</tspan></tspan></tspan></text>
 <text class="TextShape"><tspan class="TextParagraph" font-family="Liberation Sans, sans-serif" font-size="353px" font-weight="400"><tspan class="TextPosition" x="16679" y="10312"><tspan fill="rgb(0,0,0)" stroke="none">64</tspan></tspan></tspan></text>
 <text class="TextShape"><tspan class="TextParagraph" font-family="Liberation Sans, sans-serif" font-size="353px" font-weight="400"><tspan class="TextPosition" x="1773" y="9865"><tspan fill="rgb(0,0,0)" stroke="none">0</tspan></tspan></tspan></text>
 <text class="TextShape"><tspan class="TextParagraph" font-family="Liberation Sans, sans-serif" font-size="353px" font-weight="400"><tspan class="TextPosition" x="1402" y="8957"><tspan fill="rgb(0,0,0)" stroke="none">100</tspan></tspan></tspan></text>
 <text class="TextShape"><tspan class="TextParagraph" font-family="Liberation Sans, sans-serif" font-size="353px" font-weight="400"><tspan class="TextPosition" x="1402" y="8050"><tspan fill="rgb(0,0,0)" stroke="none">200</tspan></tspan></tspan></text>
 <text class="TextShape"><tspan class="TextParagraph" font-family="Liberation Sans, sans-serif" font-size="353px" font-weight="400"><tspan class="TextPosition" x="1402" y="7142"><tspan fill="rgb(0,0,0)" stroke="none">300</tspan></tspan></tspan></text>
 <text class="TextShape"><tspan class="TextParagraph" font-family="Liberation Sans, sans-serif" font-size="353px" font-weight="400"><tspan class="TextPosition" x="1402" y="6235"><tspan fill="rgb(0,0,0)" stroke="none">400</tspan></tspan></tspan></text>
 <text class="TextShape"><tspan class="TextParagraph" font-family="Liberation Sans, sans-serif" font-size="353px" font-weight="400"><tspan class="TextPosition" x="1402" y="5327"><tspan fill="rgb(0,0,0)" stroke="none">500</tspan></tspan></tspan></text>
 <text class="TextShape"><tspan class="TextParagraph" font-family="Liberation Sans, sans-serif" font-size="353px" font-weight="400"><tspan class="TextPosition" x="1402" y="4420"><tspan fill="rgb(0,0,0)" stroke="none">600</tspan></tspan></tspan></text>
 <text class="TextShape"><tspan class="TextParagraph" font-family="Liberation Sans, sans-serif" font-size="353px" font-weight="400"><tspan class="TextPosition" x="1402" y="3512"><tspan fill="rgb(0,0,0)" stroke="none">700</tspan></tspan></tspan></text>
 <text class="TextShape"><tspan class="TextParagraph" font-family="Liberation Sans, sans-serif" font-size="353px" font-weight="400"><tspan class="TextPosition" x="1402" y="2605"><tspan fill="rgb(0,0,0)" stroke="none">800</tspan></tspan></tspan></text>
 <text class="TextShape"><tspan class="TextParagraph" font-family="Liberation Sans, sans-serif" font-size="353px" font-weight="400"><tspan class="TextPosition" x="1402" y="1698"><tspan fill="rgb(0,0,0)" stroke="none">900</tspan></tspan></tspan></text>
 <text class="TextShape"><tspan class="TextParagraph" font-family="Liberation Sans, sans-serif" font-size="459px" font-weight="400"><tspan class="TextPosition" x="4311" y="904"><tspan fill="rgb(0,0,0)" stroke="none">Run Time vs Process Count for Various Problem Sizes</tspan></tspan></tspan></text>
 <path fill="none" stroke="rgb(0,69,134)" stroke-width="80" stroke-linejoin="round" d="M 17555,0 L 18355,4059"/>
 <path fill="none" stroke="rgb(255,66,14)" stroke-width="80" stroke-linejoin="round" d="M 17555,0 L 18355,4557"/>
 <path fill="none" stroke="rgb(255,211,32)" stroke-width="80" stroke-linejoin="round" d="M 17555,0 L 18355,5055"/>
 <path fill="none" stroke="rgb(87,157,28)" stroke-width="80" stroke-linejoin="round" d="M 17555,0 L 18355,5553"/>
 <path fill="none" stroke="rgb(126,0,33)" stroke-width="80" stroke-linejoin="round" d="M 17555,0 L 18355,6050"/>
 <path fill="none" stroke="rgb(131,202,255)" stroke-width="80" stroke-linejoin="round" d="M 17555,0 L 18355,6548"/>
 <path fill="none" stroke="rgb(49,64,4)" stroke-width="80" stroke-linejoin="round" d="M 17555,0 L 18355,7046"/>
 <path fill="none" stroke="rgb(174,207,0)" stroke-width="80" stroke-linejoin="round" d="M 17555,0 L 18355,7544"/>
 <text class="TextShape"><tspan class="TextParagraph" font-family="Liberation Sans, sans-serif" font-size="353px" font-weight="400"><tspan class="TextPosition" x="18455" y="4179"><tspan fill="rgb(0,0,0)" stroke="none">256</tspan></tspan></tspan></text>
 <text class="TextShape"><tspan class="TextParagraph" font-family="Liberation Sans, sans-serif" font-size="353px" font-weight="400"><tspan class="TextPosition" x="18455" y="4677"><tspan fill="rgb(0,0,0)" stroke="none">512</tspan></tspan></tspan></text>
 <text class="TextShape"><tspan class="TextParagraph" font-family="Liberation Sans, sans-serif" font-size="353px" font-weight="400"><tspan class="TextPosition" x="18455" y="5175"><tspan fill="rgb(0,0,0)" stroke="none">1024</tspan></tspan></tspan></text>
 <text class="TextShape"><tspan class="TextParagraph" font-family="Liberation Sans, sans-serif" font-size="353px" font-weight="400"><tspan class="TextPosition" x="18455" y="5673"><tspan fill="rgb(0,0,0)" stroke="none">2048</tspan></tspan></tspan></text>
 <text class="TextShape"><tspan class="TextParagraph" font-family="Liberation Sans, sans-serif" font-size="353px" font-weight="400"><tspan class="TextPosition" x="18455" y="6170"><tspan fill="rgb(0,0,0)" stroke="none">3072</tspan></tspan></tspan></text>
 <text class="TextShape"><tspan class="TextParagraph" font-family="Liberation Sans, sans-serif" font-size="353px" font-weight="400"><tspan class="TextPosition" x="18455" y="6668"><tspan fill="rgb(0,0,0)" stroke="none">4096</tspan></tspan></tspan></text>
 <text class="TextShape"><tspan class="TextParagraph" font-family="Liberation Sans, sans-serif" font-size="353px" font-weight="400"><tspan class="TextPosition" x="18455" y="7166"><tspan fill="rgb(0,0,0)" stroke="none">6144</tspan></tspan></tspan></text>
 <text class="TextShape"><tspan class="TextParagraph" font-family="Liberation Sans, sans-serif" font-size="353px" font-weight="400"><tspan class="TextPosition" x="18455" y="7664"><tspan fill="rgb(0,0,0)" stroke="none">8096</tspan></tspan></tspan></text>
 <text class="TextShape"><tspan class="TextParagraph" font-family="Liberation Sans, sans-serif" font-size="318px" font-weight="400"><tspan class="TextPosition" x="8166" y="11011"><tspan fill="rgb(0,0,0)" stroke="none">Process Count</tspan></tspan></tspan></text>
 <text class="TextShape" transform="translate(837,6811) rotate(-90) translate(-837,-6811)"><tspan class="TextParagraph" font-family="Liberation Sans, sans-serif" font-size="318px" font-weight="400"><tspan class="TextPosition" x="837" y="6811"><tspan fill="rgb(0,0,0)" stroke="none">Run Time (s)</tspan></tspan></tspan></text>
</svg>